<svg width="208" height="46" viewBox="0 0 208 46" fill="none" xmlns="http://www.w3.org/2000/svg">
<path fill-rule="evenodd" clip-rule="evenodd" d="M25.536 15.3857L12.3689 15.3857L12.3689 19.2427L12.3689 19.2427L12.3689 25.6268L16.6249 25.6268L16.6249 19.6417L25.536 19.6417L25.536 15.3857Z" fill="#7343C6"/>
<path fill-rule="evenodd" clip-rule="evenodd" d="M10.7729 32.1438L23.9399 32.1438L23.9399 28.2868L23.9399 28.2868L23.94 21.9027L19.6839 21.9027L19.6839 27.8878L10.7729 27.8878L10.7729 32.1438Z" fill="#7343C6"/>
<rect x="2.92603" y="20.0461" width="6.91603" height="1.33001" fill="#7343C6"/>
<rect y="23.5041" width="9.31004" height="1.33001" fill="#7343C6"/>
<rect x="2.92603" y="27.0951" width="4.78802" height="1.33001" fill="#7343C6"/>
<path d="M36.3396 32.1089C33.6862 32.1089 31.6899 30.8706 31.2855 28.3689L34.3938 27.535C34.5959 28.1667 35.0508 29.0512 36.289 29.0512C36.9966 29.0512 37.6536 28.6974 37.6536 27.9646C37.6536 27.535 37.4009 27.1307 36.5417 26.8527L34.7728 26.1957C32.5996 25.4123 31.6646 23.9972 31.6646 22.3546C31.6646 19.9034 33.8631 18.463 36.4407 18.463C38.9171 18.463 40.7113 19.8529 41.1662 21.9756L38.1085 22.7337C37.78 21.7229 37.1229 21.4954 36.5923 21.4954C35.8342 21.4954 35.4551 21.9503 35.4551 22.4051C35.4551 22.8347 35.7078 23.2391 36.5923 23.517L38.2348 24.1235C39.65 24.6036 41.5199 25.5892 41.5199 27.9646C41.5199 30.6179 39.2709 32.1089 36.3396 32.1089ZM43.2721 31.8562V18.7157H47.1889V31.8562H43.2721ZM43.2721 17.3259V13.9144H47.1889V17.3259H43.2721ZM55.0738 32.0078C52.6479 32.0078 50.879 30.8201 50.879 27.813V21.8239H48.9332V18.7157H50.879V15.3548H54.7958V18.7157H57.5503V21.8239H54.7958V27.1812C54.7958 27.8382 55.1749 28.5458 56.3626 28.5458C56.6658 28.5458 57.1207 28.4952 57.6008 28.3436V31.3255C57.0954 31.8309 55.9835 32.0078 55.0738 32.0078ZM65.5803 32.1089C61.9414 32.1089 58.6562 29.6324 58.6562 25.3112C58.6562 20.8637 61.9666 18.463 65.3528 18.463C68.6885 18.463 72.6053 20.7879 71.7714 26.8021H62.4215C62.9522 28.2173 64.2662 28.9248 66.0098 28.9248C67.1723 28.9248 68.2083 28.6469 69.1686 27.914L70.9375 29.7588C69.8509 31.1233 67.9809 32.1089 65.5803 32.1089ZM62.3457 23.9972H68.3347C68.0567 22.481 66.7174 21.7481 65.4034 21.7481C64.0893 21.7481 62.7753 22.4304 62.3457 23.9972ZM77.5763 32.1089C74.9229 32.1089 72.9266 30.8706 72.5222 28.3689L75.6305 27.535C75.8326 28.1667 76.2875 29.0512 77.5257 29.0512C78.2333 29.0512 78.8903 28.6974 78.8903 27.9646C78.8903 27.535 78.6376 27.1307 77.7784 26.8527L76.0095 26.1957C73.8363 25.4123 72.9013 23.9972 72.9013 22.3546C72.9013 19.9034 75.0998 18.463 77.6773 18.463C80.1538 18.463 81.948 19.8529 82.4028 21.9756L79.3452 22.7337C79.0167 21.7229 78.3596 21.4954 77.829 21.4954C77.0709 21.4954 76.6918 21.9503 76.6918 22.4051C76.6918 22.8347 76.9445 23.2391 77.829 23.517L79.4715 24.1235C80.8866 24.6036 82.7566 25.5892 82.7566 27.9646C82.7566 30.6179 80.5076 32.1089 77.5763 32.1089ZM84.9131 31.8562V18.7157H86.4546V21.0153C87.1116 19.7265 88.5772 18.463 91.0032 18.463C93.8082 18.463 96.2088 20.2066 96.2088 24.1235V31.8562H94.6673V24.3004C94.6673 21.2933 92.8732 19.8781 90.5989 19.8781C88.3498 19.8781 86.4546 21.2933 86.4546 24.3004V31.8562H84.9131ZM105.287 32.1089C102.002 32.1089 98.7672 29.7588 98.7672 25.2859C98.7672 20.8131 102.002 18.463 105.287 18.463C107.763 18.463 109.785 19.8276 110.543 21.5207H110.619V18.7157H112.16V31.8562H110.619V29.0512H110.543C109.785 30.7443 107.763 32.1089 105.287 32.1089ZM100.309 25.2859C100.309 28.9248 102.912 30.6937 105.489 30.6937C108.067 30.6937 110.669 28.8996 110.669 25.2859C110.669 21.6723 108.067 19.8781 105.489 19.8781C102.912 19.8781 100.309 21.647 100.309 25.2859ZM114.937 31.8562V13.9144H118.853V20.3835C119.586 19.2717 120.875 18.463 122.745 18.463C125.398 18.463 127.647 20.1056 127.647 24.1235V31.8562H123.731V24.8058C123.731 23.1633 122.897 21.9503 121.279 21.9503C119.687 21.9503 118.853 23.1633 118.853 24.8058V31.8562H114.937ZM136.358 32.1089C132.921 32.1089 129.383 29.7588 129.383 25.2859C129.383 20.8131 132.921 18.463 136.358 18.463C139.794 18.463 143.332 20.8131 143.332 25.2859C143.332 29.7588 139.794 32.1089 136.358 32.1089ZM133.249 25.2859C133.249 27.3075 134.664 28.5711 136.358 28.5711C138.051 28.5711 139.466 27.3075 139.466 25.2859C139.466 23.2643 138.051 22.0008 136.358 22.0008C134.664 22.0008 133.249 23.2643 133.249 25.2859ZM145.068 31.8562V18.7157H148.985V22.2788C149.415 20.1561 150.678 18.463 153.054 18.463C153.357 18.463 153.66 18.4883 153.989 18.5894V22.3041C153.685 22.2535 153.407 22.2283 153.079 22.2283C150.476 22.2283 148.985 23.9719 148.985 26.4484V31.8562H145.068ZM160.994 32.1089C158.012 32.1089 154.727 29.8598 154.727 25.2859C154.727 20.712 158.012 18.463 160.994 18.463C163.319 18.463 164.684 19.7265 164.886 20.2066H164.961V18.7157H168.878V31.8562H164.961V30.3652H164.886C164.684 30.8454 163.319 32.1089 160.994 32.1089ZM158.593 25.2859C158.593 27.4086 160.135 28.6216 161.803 28.6216C163.521 28.6216 165.063 27.4339 165.063 25.2859C165.063 23.138 163.521 21.9503 161.803 21.9503C160.135 21.9503 158.593 23.1633 158.593 25.2859Z" fill="#7343C6"/>
</svg>
